# xmcd
#
# Track frame offsets: 
#        150
#        16362
#        38447
#        56220
#
# Disc length: 1011 seconds
#
# Revision: 0
# Processed by: cddbd v1.5.2PL0 Copyright (c) Steve Scherf et al.
# Submitted via: ExactAudioCopy v0.99pb4
#
DISCID=2903f104
DTITLE=Blauw bloed - Sterk genoeg [CD single)
DYEAR=2000
DGENRE=Nederlands
TTITLE0=Sterk genoeg
TTITLE1=Ik ben verliefd
TTITLE2=Een goed gevoel
TTITLE3=Geef me nog één keer
EXTD=
EXTT0=
EXTT1=
EXTT2=
EXTT3=
PLAYORDER=
